<?xml version="1.0" standalone="no"?>
<!DOCTYPE svg PUBLIC "-//W3C//DTD SVG 20010904//EN"
 "http://www.w3.org/TR/2001/REC-SVG-20010904/DTD/svg10.dtd">
<svg version="1.0" xmlns="http://www.w3.org/2000/svg"
 width="700.000000pt" height="700.000000pt" viewBox="0 0 700.000000 700.000000"
 preserveAspectRatio="xMidYMid meet">
<metadata>
Created by potrace 1.11, written by Peter Selinger 2001-2013
</metadata>
<g transform="translate(0.000000,700.000000) scale(0.100000,-0.100000)"
fill="#000000" stroke="none">
<path d="M2699 6843 c-76 -39 -113 -101 -113 -188 0 -59 5 -70 53 -149 110
-180 149 -345 112 -482 -10 -37 -58 -122 -84 -149 -112 -115 -192 -240 -230
-360 -26 -82 -30 -105 -33 -225 -4 -211 52 -385 190 -588 55 -81 106 -118 176
-128 151 -21 278 132 228 277 -6 19 -28 59 -49 89 -127 189 -155 350 -83 493
21 40 122 171 146 187 13 10 83 123 105 170 56 122 74 206 74 340 -1 94 -2
107 -16 185 -30 170 -171 456 -252 513 -71 49 -146 54 -224 15z"/>
<path d="M3990 6850 c-82 -38 -124 -105 -124 -197 0 -53 5 -69 36 -120 139
-226 174 -386 118 -537 -21 -55 -34 -72 -152 -212 -63 -74 -139 -217 -165
-309 -10 -37 -17 -108 -19 -185 -2 -109 1 -139 25 -231 39 -153 131 -333 215
-423 30 -33 102 -66 145 -66 181 -1 283 198 177 345 -87 120 -125 213 -133
321 -9 131 19 202 128 326 209 237 275 491 205 788 -45 195 -163 420 -252 482
-55 39 -142 47 -204 18z"/>
<path d="M1313 4194 c-20 -7 -48 -22 -62 -32 -32 -24 -76 -86 -80 -115 -7 -43
-5 -1184 1 -1277 30 -422 213 -866 477 -1160 22 -25 41 -48 41 -52 0 -5 -339
-8 -752 -8 -458 0 -767 -4 -788 -10 -149 -41 -196 -243 -83 -356 54 -54 76
-58 351 -60 139 0 254 -3 256 -5 1 -2 27 -49 56 -104 29 -55 71 -134 93 -175
75 -141 147 -240 244 -338 162 -163 334 -264 554 -327 158 -45 134 -44 1849
-41 1454 2 1632 4 1696 18 251 58 462 171 635 344 125 124 193 228 347 531 40
80 50 93 72 94 14 0 131 1 260 2 l235 2 48 28 c117 69 143 222 54 323 -64 73
-6 68 -865 74 l-774 5 27 30 c139 157 275 379 355 580 33 81 77 214 84 250 2
11 7 31 11 46 l6 25 242 0 c133 -1 276 2 317 6 384 37 690 318 765 703 19 97
12 279 -14 372 -91 317 -335 549 -655 621 -64 14 -314 16 -2519 17 -1943 1
-2455 -1 -2484 -11z m3964 -909 c0 -269 -3 -515 -8 -545 -5 -30 -11 -73 -14
-95 -24 -164 -109 -389 -211 -557 -117 -193 -330 -410 -505 -516 l-36 -22
-1070 0 -1070 0 -89 62 c-166 118 -333 295 -440 468 -84 135 -176 352 -198
470 -3 14 -9 50 -15 80 -5 30 -13 71 -17 90 -7 38 -16 1027 -9 1047 3 9 426
11 1842 10 l1838 -2 2 -490z m1003 470 c259 -106 364 -386 233 -622 -34 -60
-106 -130 -169 -164 -85 -45 -140 -53 -396 -54 l-238 -1 0 434 0 434 263 -4
c224 -4 269 -8 307 -23z m-575 -2637 c6 -6 -73 -152 -116 -215 -126 -183 -359
-317 -589 -339 -76 -7 -3092 -6 -3145 1 -233 31 -438 153 -570 340 -47 67
-127 210 -121 216 6 6 4535 3 4541 -3z"/>
</g>
</svg>
